<?xml version="1.0" standalone="no"?>
<!DOCTYPE svg PUBLIC "-//W3C//DTD SVG 20010904//EN"
 "http://www.w3.org/TR/2001/REC-SVG-20010904/DTD/svg10.dtd">
<svg version="1.0" xmlns="http://www.w3.org/2000/svg"
 width="440.000000pt" height="299.000000pt" viewBox="0 0 440.000000 299.000000"
 preserveAspectRatio="xMidYMid meet">

<g transform="translate(0.000000,299.000000) scale(0.100000,-0.100000)"
fill="#000000" stroke="none">
<path d="M2252 2558 c-7 -7 -12 -16 -12 -20 0 -4 -37 -70 -83 -145 -46 -76
-109 -183 -142 -238 -32 -55 -71 -121 -87 -148 -15 -26 -28 -50 -28 -53 0 -2
-8 -17 -19 -32 -24 -35 -310 -518 -407 -689 l-25 -43 243 0 c134 0 248 4 254
8 6 4 56 81 109 172 54 91 117 197 140 235 23 39 59 102 80 140 21 39 75 136
121 216 46 81 91 162 100 181 l16 34 -75 124 c-40 69 -93 158 -116 198 -23 39
-45 72 -49 72 -5 0 -13 -5 -20 -12z"/>
<path d="M2290 1705 c0 -11 205 -365 276 -477 l24 -38 245 0 c135 0 245 3 245
7 0 4 -17 36 -39 72 -21 36 -64 111 -96 166 -32 55 -81 138 -109 185 l-51 85
-248 3 c-136 1 -247 0 -247 -3z"/>
<path d="M280 553 c-74 -134 -136 -249 -138 -256 -2 -8 9 -14 28 -15 34 -3 53
13 92 80 l26 46 119 1 c65 1 123 -2 129 -6 6 -5 21 -27 32 -49 30 -58 48 -74
88 -74 19 0 34 3 34 6 0 4 -29 59 -64 123 -35 64 -92 170 -126 236 -35 66 -68
127 -74 136 -9 13 -36 -30 -146 -228z m188 -2 c41 -76 43 -90 15 -85 -7 1 -47
2 -89 3 l-75 1 42 80 c24 44 48 80 54 80 6 0 30 -36 53 -79z"/>
<path d="M2749 678 c-34 -62 -72 -132 -85 -155 -29 -51 -63 -112 -98 -173 -33
-58 -33 -70 2 -70 37 0 56 16 82 68 12 23 26 45 31 48 5 3 66 7 135 8 l126 2
29 -58 c20 -40 37 -60 53 -64 32 -8 62 -1 59 14 -2 6 -51 100 -111 209 -59
109 -116 217 -126 241 -11 23 -22 42 -27 42 -4 0 -35 -51 -70 -112z m115 -120
c20 -36 36 -71 36 -77 0 -7 -31 -11 -90 -11 -103 0 -100 -7 -37 103 22 38 43
65 47 60 4 -4 24 -38 44 -75z"/>
<path d="M3160 541 c0 -270 -2 -261 56 -261 29 0 28 -5 29 190 0 107 3 145 12
145 14 0 105 -75 283 -234 68 -61 128 -111 132 -111 4 0 8 113 8 250 l0 250
-42 0 -43 0 3 -138 c2 -75 0 -152 -5 -170 l-8 -33 -205 180 c-113 99 -208 180
-212 181 -5 0 -8 -112 -8 -249z"/>
<path d="M1580 771 c-90 -29 -131 -83 -110 -144 12 -39 51 -66 150 -106 113
-46 139 -94 81 -152 -49 -49 -147 -36 -172 22 -9 24 -17 29 -46 29 -42 0 -51
-19 -28 -58 31 -51 90 -82 159 -82 129 0 213 83 185 183 -13 47 -54 78 -154
116 -44 17 -86 40 -92 51 -16 24 -3 64 26 79 33 18 96 13 125 -10 23 -18 31
-20 56 -9 25 10 27 15 18 30 -25 40 -140 70 -198 51z"/>
<path d="M750 765 c0 -3 34 -53 75 -112 41 -58 75 -109 75 -114 0 -5 -40 -64
-90 -131 l-89 -123 30 -3 c43 -5 69 16 133 107 31 45 60 81 65 81 5 0 18 -15
30 -32 92 -145 105 -158 153 -158 21 0 38 3 38 6 0 3 -39 60 -86 126 -47 66
-83 126 -80 134 3 7 36 55 73 106 95 128 91 118 39 118 -44 0 -45 0 -100 -80
-31 -44 -60 -80 -65 -80 -4 0 -32 36 -62 80 -53 79 -54 80 -96 80 -24 0 -43
-2 -43 -5z"/>
<path d="M1262 543 c0 -125 4 -236 9 -245 15 -27 67 -24 74 5 3 12 4 121 3
242 l-3 220 -41 3 -41 3 -1 -228z"/>
<path d="M2170 526 l0 -247 108 6 c132 8 163 17 202 61 23 27 30 44 30 76 0
36 -6 47 -45 85 -44 41 -45 44 -30 67 25 38 27 88 5 123 -29 48 -70 64 -176
70 l-94 6 0 -247z m181 173 c29 -15 40 -52 27 -89 -12 -35 -41 -50 -94 -50
l-34 0 0 75 0 75 41 0 c22 0 49 -5 60 -11z m51 -213 c39 -17 40 -80 2 -113
-21 -19 -37 -23 -90 -23 l-64 0 0 74 c0 63 3 75 18 78 22 4 112 -7 134 -16z"/>
<path d="M3795 761 c-7 -12 -5 -384 3 -443 4 -34 7 -38 33 -38 40 0 51 27 48
118 -2 97 -2 102 13 102 7 0 63 -50 124 -111 l111 -110 46 3 47 3 -125 125
c-108 109 -145 159 -117 160 4 1 32 24 62 51 30 28 82 72 114 98 l59 46 -41 3
c-52 4 -64 -3 -179 -101 -52 -45 -99 -83 -103 -85 -5 -2 -11 39 -12 90 l-3 93
-37 3 c-20 2 -39 -2 -43 -7z"/>
</g>
</svg>
